<?xml version="1.0" encoding="UTF-8"?>
<svg width="25px" height="25px" viewBox="0 0 25 25" version="1.1" xmlns="http://www.w3.org/2000/svg" xmlns:xlink="http://www.w3.org/1999/xlink">
    <!-- Generator: Sketch 52.1 (67048) - http://www.bohemiancoding.com/sketch -->
    <title>Group 3 Copy</title>
    <desc>Created with Sketch.</desc>
    <g id="Page-1" stroke="none" stroke-width="1" fill="none" fill-rule="evenodd">
        <g id="Artboard" transform="translate(-54.000000, -73.000000)">
            <g id="Group-3-Copy" transform="translate(54.000000, 73.000000)">
                <circle id="Oval" fill="#FF8C00" cx="12.5" cy="12.5" r="12.5"></circle>
                <path d="M17.028,14.624 C17.028,15.68 16.644,16.432 16.084,16.992 C15.22,17.856 13.892,18.208 12.5,18.208 C11.3,18.208 10.036,17.888 9.108,17.04 C8.436,16.432 7.924,15.472 7.924,14.4 L10.036,14.4 C10.036,14.96 10.292,15.456 10.628,15.792 C11.108,16.272 11.876,16.4 12.532,16.4 C13.316,16.4 14.068,16.24 14.5,15.792 C14.756,15.52 14.948,15.248 14.948,14.704 C14.948,13.872 14.308,13.488 13.604,13.36 C12.836,13.216 11.844,13.184 11.092,13.056 C9.524,12.8 8.212,11.776 8.212,9.888 C8.212,8.992 8.612,8.24 9.204,7.648 C9.956,6.912 11.204,6.448 12.532,6.448 C13.748,6.448 14.932,6.832 15.7,7.552 C16.372,8.192 16.836,9.024 16.852,9.968 L14.74,9.968 C14.724,9.568 14.516,9.136 14.244,8.848 C13.876,8.464 13.124,8.24 12.516,8.24 C11.876,8.24 11.14,8.384 10.676,8.864 C10.436,9.12 10.292,9.408 10.292,9.824 C10.292,10.56 10.772,10.944 11.444,11.056 C12.164,11.168 13.172,11.248 13.908,11.344 C15.604,11.584 17.028,12.688 17.028,14.624 Z" id="S" fill="#FFFFFF"></path>
            </g>
        </g>
    </g>
</svg>